<svg xmlns="http://www.w3.org/2000/svg" viewBox="0 0 1200 630" width="1200" height="630">
  <rect width="1200" height="630" fill="#5e5e5d"/>
  <g transform="translate(600 315) scale(0.55) translate(-1000 -995)" fill="#ffffff" fill-rule="nonzero">
    <path d="M 692.421875 1126.617188 L 593.113281 1126.617188 L 484.234375 950.976562 C 470.261719 928.449219 456.171875 901.089844 441.964844 868.878906 C 448.371094 894.503906 451.574219 916.25 451.574219 934.113281 L 451.574219 1126.617188 L 352.554688 1126.617188 L 352.554688 729.089844 L 467.882812 729.089844 L 560.503906 874.695312 C 578.949219 903.625 592.925781 929.0625 602.429688 951.007812 C 596.214844 917.03125 593.113281 882.273438 593.113281 846.742188 L 593.113281 729.089844 L 692.421875 729.089844 Z M 692.421875 1126.617188 "/>
    <path d="M 883.761719 1126.617188 L 761.738281 1126.617188 L 761.738281 729.089844 L 883.761719 729.089844 Z M 883.761719 1126.617188 "/>
    <path d="M 1259.15625 1032.84375 L 1259.15625 1126.617188 L 928.320312 1126.617188 L 928.320312 1050.605469 L 1104.480469 821.117188 L 941.714844 821.117188 L 941.714844 729.089844 L 1253.625 729.089844 L 1253.625 806.265625 L 1082.578125 1032.84375 Z M 1259.15625 1032.84375 "/>
    <path d="M 1414.703125 961.492188 L 1479.019531 961.492188 L 1446.859375 846.171875 Z M 1522.921875 1126.617188 L 1500.457031 1048.277344 L 1393.957031 1048.277344 L 1370.089844 1126.617188 L 1271.027344 1126.617188 L 1393.75 729.089844 L 1522.769531 729.089844 L 1647.445312 1126.617188 Z M 1522.921875 1126.617188 "/>
    <path d="M 362.441406 1269.292969 L 352.554688 1269.292969 L 352.554688 1190.367188 L 362.441406 1190.367188 Z M 362.441406 1269.292969 "/>
    <path d="M 517.828125 1269.292969 L 508.230469 1269.292969 L 467.410156 1200.488281 L 467.527344 1205.691406 C 467.640625 1207.65625 467.699219 1209.316406 467.699219 1210.664062 L 467.699219 1269.292969 L 459.71875 1269.292969 L 459.71875 1190.367188 L 472.09375 1190.367188 L 510.253906 1254.6875 L 510.140625 1249.195312 C 510.066406 1247.039062 510.023438 1245.136719 510.023438 1243.476562 L 510.023438 1190.367188 L 517.828125 1190.367188 Z M 517.828125 1269.292969 "/>
    <path d="M 638.933594 1269.292969 L 629.046875 1269.292969 L 629.046875 1199.039062 L 606.441406 1199.039062 L 606.441406 1190.367188 L 661.601562 1190.367188 L 661.601562 1199.039062 L 638.933594 1199.039062 Z M 638.933594 1269.292969 "/>
    <path d="M 801.203125 1260.621094 L 801.203125 1269.292969 L 750.148438 1269.292969 L 750.148438 1190.367188 L 800.101562 1190.367188 L 800.101562 1199.039062 L 760.035156 1199.039062 L 760.035156 1224.132812 L 791.835938 1224.132812 L 791.835938 1232.171875 L 760.035156 1232.171875 L 760.035156 1260.621094 Z M 801.203125 1260.621094 "/>
    <path d="M 901.832031 1227.082031 L 922.472656 1227.082031 C 927.910156 1227.082031 931.96875 1225.648438 934.644531 1222.777344 C 937.328125 1219.902344 938.664062 1216.386719 938.664062 1212.222656 C 938.664062 1208.0625 937.246094 1204.824219 934.414062 1202.507812 C 931.582031 1200.195312 928.007812 1199.039062 923.6875 1199.039062 L 901.832031 1199.039062 Z M 949.359375 1269.292969 L 939 1269.292969 L 924.445312 1235.121094 L 901.832031 1235.121094 L 901.832031 1269.292969 L 892.582031 1269.292969 L 892.582031 1190.367188 L 923.6875 1190.367188 C 932.128906 1190.367188 938.386719 1192.667969 942.453125 1197.277344 C 946.523438 1201.886719 948.550781 1206.921875 948.550781 1212.398438 C 948.550781 1216.601562 947.417969 1220.625 945.140625 1224.480469 C 942.867188 1228.339844 939.109375 1231.089844 933.867188 1232.75 Z M 949.359375 1269.292969 "/>
    <path d="M 1052.597656 1269.292969 L 1042.710938 1269.292969 L 1042.710938 1190.367188 L 1052.597656 1190.367188 Z M 1052.597656 1269.292969 "/>
    <path d="M 1177.339844 1262.875 C 1184.246094 1262.875 1189.640625 1259.730469 1193.53125 1253.445312 C 1197.429688 1247.152344 1199.371094 1239.050781 1199.371094 1229.136719 C 1199.371094 1218.949219 1197.359375 1211.023438 1193.328125 1205.347656 C 1189.304688 1199.675781 1183.957031 1196.84375 1177.28125 1196.84375 C 1170.539062 1196.84375 1165.179688 1199.910156 1161.207031 1206.042969 C 1157.242188 1212.175781 1155.253906 1220.203125 1155.253906 1230.121094 C 1155.253906 1239.804688 1157.261719 1247.683594 1161.265625 1253.761719 C 1165.28125 1259.839844 1170.632812 1262.875 1177.339844 1262.875 M 1177.109375 1270.910156 C 1166.972656 1270.910156 1159.070312 1266.96875 1153.402344 1259.082031 C 1147.738281 1251.1875 1144.902344 1241.523438 1144.902344 1230.0625 C 1144.902344 1218.105469 1147.875 1208.226562 1153.808594 1200.433594 C 1159.746094 1192.644531 1167.609375 1188.75 1177.398438 1188.75 C 1187.152344 1188.75 1194.976562 1192.578125 1200.875 1200.230469 C 1206.773438 1207.894531 1209.722656 1217.542969 1209.722656 1229.195312 C 1209.722656 1240.382812 1206.859375 1250.128906 1201.132812 1258.445312 C 1195.410156 1266.753906 1187.402344 1270.910156 1177.109375 1270.910156 "/>
    <path d="M 1311.398438 1227.082031 L 1332.039062 1227.082031 C 1337.472656 1227.082031 1341.527344 1225.648438 1344.210938 1222.777344 C 1346.886719 1219.902344 1348.230469 1216.386719 1348.230469 1212.222656 C 1348.230469 1208.0625 1346.8125 1204.824219 1343.980469 1202.507812 C 1341.148438 1200.195312 1337.566406 1199.039062 1333.253906 1199.039062 L 1311.398438 1199.039062 Z M 1358.925781 1269.292969 L 1348.566406 1269.292969 L 1334.011719 1235.121094 L 1311.398438 1235.121094 L 1311.398438 1269.292969 L 1302.148438 1269.292969 L 1302.148438 1190.367188 L 1333.253906 1190.367188 C 1341.695312 1190.367188 1347.945312 1192.667969 1352.015625 1197.277344 C 1356.082031 1201.886719 1358.117188 1206.921875 1358.117188 1212.398438 C 1358.117188 1216.601562 1356.976562 1220.625 1354.703125 1224.480469 C 1352.425781 1228.339844 1348.667969 1231.089844 1343.429688 1232.75 Z M 1358.925781 1269.292969 "/>
    <path d="M 1503.328125 1260.621094 L 1503.328125 1269.292969 L 1452.273438 1269.292969 L 1452.273438 1190.367188 L 1502.226562 1190.367188 L 1502.226562 1199.039062 L 1462.160156 1199.039062 L 1462.160156 1224.132812 L 1493.960938 1224.132812 L 1493.960938 1232.171875 L 1462.160156 1232.171875 L 1462.160156 1260.621094 Z M 1503.328125 1260.621094 "/>
    <path d="M 1586.039062 1248.417969 L 1594.941406 1246.394531 C 1598.527344 1257.152344 1606.292969 1262.527344 1618.246094 1262.527344 C 1624.488281 1262.527344 1629.191406 1261.203125 1632.351562 1258.554688 C 1635.515625 1255.90625 1637.09375 1252.355469 1637.09375 1247.90625 C 1637.09375 1244.539062 1635.890625 1241.832031 1633.480469 1239.78125 C 1631.074219 1237.734375 1628.289062 1236.324219 1625.128906 1235.546875 L 1609.339844 1231.65625 C 1605.253906 1230.609375 1601.910156 1229.351562 1599.308594 1227.863281 C 1596.707031 1226.378906 1594.496094 1224.089844 1592.6875 1221 C 1590.878906 1217.914062 1589.972656 1214.378906 1589.972656 1210.402344 C 1589.972656 1203.804688 1592.457031 1198.542969 1597.429688 1194.628906 C 1602.402344 1190.707031 1608.78125 1188.75 1616.566406 1188.75 C 1630.90625 1188.75 1640.332031 1195.242188 1644.84375 1208.234375 L 1635.878906 1210.894531 C 1634.839844 1206.269531 1632.394531 1202.769531 1628.535156 1200.398438 C 1624.679688 1198.03125 1620.574219 1196.84375 1616.222656 1196.84375 C 1611.902344 1196.84375 1608.058594 1197.988281 1604.6875 1200.273438 C 1601.316406 1202.554688 1599.625 1205.789062 1599.625 1209.972656 C 1599.625 1215.820312 1603.898438 1219.769531 1612.449219 1221.824219 L 1627.207031 1225.285156 C 1640.695312 1228.523438 1647.445312 1235.792969 1647.445312 1247.082031 C 1647.445312 1253.914062 1644.910156 1259.585938 1639.839844 1264.117188 C 1634.769531 1268.644531 1627.628906 1270.910156 1618.417969 1270.910156 C 1602.074219 1270.910156 1591.28125 1263.414062 1586.039062 1248.417969 "/>
  </g>
</svg>
